<?xml version="1.0" encoding="UTF-8"?>
<!DOCTYPE svg PUBLIC "-//W3C//DTD SVG 1.1//EN" "http://www.w3.org/Graphics/SVG/1.1/DTD/svg11.dtd">
<!-- Creator: CorelDRAW 2018 (64-Bit Evaluation Version) -->
<svg xmlns="http://www.w3.org/2000/svg" xml:space="preserve" width="3in" height="3.5in" version="1.1" style="shape-rendering:geometricPrecision; text-rendering:geometricPrecision; image-rendering:optimizeQuality; fill-rule:evenodd; clip-rule:evenodd"
viewBox="0 0 3000 3500"
 xmlns:xlink="http://www.w3.org/1999/xlink">
 <defs>
  <style type="text/css">
   <![CDATA[
    .str0 {stroke:#373435;stroke-width:55.56;stroke-miterlimit:2.61313}
    .fil0 {fill:none}
    .fil4 {fill:#FEFEFE}
    .fil3 {fill:#AA3436}
    .fil1 {fill:#282829}
    .fil2 {fill:#343170}
   ]]>
  </style>
    <clipPath id="id0">
     <path d="M1161.65 1994.71l114.61 0.24c2.59,-5.39 22.97,-203.39 25.91,-228.97 16.56,-143.73 70.73,-536.44 151.3,-616.3 32.48,-32.19 64.21,-4.29 80.89,19.46 17.02,24.24 29.39,55.81 39.72,88.25 62.38,195.93 71.48,476.86 83.4,684.45 9.41,2 110.85,1.94 119.48,-0.2 3.12,-38.43 3.37,-82.02 5.11,-120.59 1.82,-40.14 4.97,-80.16 8.02,-120.22 9.75,-128.42 31.42,-323.17 69.75,-442.07 10.54,-32.72 22.2,-62.88 39.54,-88.46 15.56,-22.96 47.84,-53.32 80.79,-21.67 203.83,282.19 134.36,1383.54 215.81,1766.84l98.31 0c-71.52,-289.09 31.56,-1625.56 -301.05,-1827.17 -73.31,-44.44 -118.2,8.05 -148.35,55.14 -30.31,47.34 -53.56,104.69 -73.59,162.59 -15.93,46.03 -28.71,88.92 -41.02,136.2 -3.43,13.17 -7.73,37.96 -13,48.18 -4.47,-7.72 -21.14,-77.96 -25.25,-92.86 -21.76,-78.81 -60.81,-190.17 -102.51,-253.98 -29.17,-44.65 -73.49,-100.34 -147.12,-56.12 -43.74,26.26 -78.68,79.88 -105.5,132.69 -78.98,155.47 -126.32,375.05 -154.7,555.85 -9.93,63.29 -22.61,153.29 -20.54,218.75z"/>
    </clipPath>
     <clipPath id="id1">
      <path d="M1161.65 1994.71l114.61 0.24c2.59,-5.39 22.97,-203.39 25.91,-228.97 16.56,-143.73 70.73,-536.44 151.3,-616.3 32.48,-32.19 64.21,-4.29 80.89,19.46 17.02,24.24 29.39,55.81 39.72,88.25 62.38,195.93 71.48,476.86 83.4,684.45 9.41,2 110.85,1.94 119.48,-0.2 3.12,-38.43 3.37,-82.02 5.11,-120.59 1.82,-40.14 4.97,-80.16 8.02,-120.22 9.75,-128.42 31.42,-323.17 69.75,-442.07 10.54,-32.72 22.2,-62.88 39.54,-88.46 15.56,-22.96 47.84,-53.32 80.79,-21.67 203.83,282.19 134.36,1383.54 215.81,1766.84l98.31 0c-71.52,-289.09 31.56,-1625.56 -301.05,-1827.17 -73.31,-44.44 -118.2,8.05 -148.35,55.14 -30.31,47.34 -53.56,104.69 -73.59,162.59 -15.93,46.03 -28.71,88.92 -41.02,136.2 -3.43,13.17 -7.73,37.96 -13,48.18 -4.47,-7.72 -21.14,-77.96 -25.25,-92.86 -21.76,-78.81 -60.81,-190.17 -102.51,-253.98 -29.17,-44.65 -73.49,-100.34 -147.12,-56.12 -43.74,26.26 -78.68,79.88 -105.5,132.69 -78.98,155.47 -126.32,375.05 -154.7,555.85 -9.93,63.29 -22.61,153.29 -20.54,218.75z"/>
     </clipPath>
     <clipPath id="id2">
      <path d="M1161.65 1994.71l114.61 0.24c2.59,-5.39 22.97,-203.39 25.91,-228.97 16.56,-143.73 70.73,-536.44 151.3,-616.3 32.48,-32.19 64.21,-4.29 80.89,19.46 17.02,24.24 29.39,55.81 39.72,88.25 62.38,195.93 71.48,476.86 83.4,684.45 9.41,2 110.85,1.94 119.48,-0.2 3.12,-38.43 3.37,-82.02 5.11,-120.59 1.82,-40.14 4.97,-80.16 8.02,-120.22 9.75,-128.42 31.42,-323.17 69.75,-442.07 10.54,-32.72 22.2,-62.88 39.54,-88.46 15.56,-22.96 47.84,-53.32 80.79,-21.67 203.83,282.19 134.36,1383.54 215.81,1766.84l98.31 0c-71.52,-289.09 31.56,-1625.56 -301.05,-1827.17 -73.31,-44.44 -118.2,8.05 -148.35,55.14 -30.31,47.34 -53.56,104.69 -73.59,162.59 -15.93,46.03 -28.71,88.92 -41.02,136.2 -3.43,13.17 -7.73,37.96 -13,48.18 -4.47,-7.72 -21.14,-77.96 -25.25,-92.86 -21.76,-78.81 -60.81,-190.17 -102.51,-253.98 -29.17,-44.65 -73.49,-100.34 -147.12,-56.12 -43.74,26.26 -78.68,79.88 -105.5,132.69 -78.98,155.47 -126.32,375.05 -154.7,555.85 -9.93,63.29 -22.61,153.29 -20.54,218.75z"/>
     </clipPath>
    <clipPath id="id3">
     <path d="M1002.67 2273.85c-395.48,-227.63 -496.9,-789.78 -277.09,-1100.13 23.37,-33 54.37,-73.7 81.3,-102.78 32.89,-35.51 81.78,-68.85 120.46,-103.4 -57.58,21.34 -201.93,145.43 -246.43,205.04 -160.04,214.41 -216.28,478.05 -135.6,744.54 151.92,501.81 700.38,745.37 1165.16,485.3 153,-85.58 299.59,-268.89 315.72,-305.46 3.32,-7.54 2.78,-6.49 4.05,-12.1 -33.72,23.81 -74.46,67.95 -105.22,95.48 -267.36,239.36 -611.47,272.46 -922.35,93.5z"/>
    </clipPath>
     <clipPath id="id4">
      <path d="M1002.67 2273.85c-395.48,-227.63 -496.9,-789.78 -277.09,-1100.13 23.37,-33 54.37,-73.7 81.3,-102.78 32.89,-35.51 81.78,-68.85 120.46,-103.4 -57.58,21.34 -201.93,145.43 -246.43,205.04 -160.04,214.41 -216.28,478.05 -135.6,744.54 151.92,501.81 700.38,745.37 1165.16,485.3 153,-85.58 299.59,-268.89 315.72,-305.46 3.32,-7.54 2.78,-6.49 4.05,-12.1 -33.72,23.81 -74.46,67.95 -105.22,95.48 -267.36,239.36 -611.47,272.46 -922.35,93.5z"/>
     </clipPath>
     <clipPath id="id5">
      <path d="M1002.67 2273.85c-395.48,-227.63 -496.9,-789.78 -277.09,-1100.13 23.37,-33 54.37,-73.7 81.3,-102.78 32.89,-35.51 81.78,-68.85 120.46,-103.4 -57.58,21.34 -201.93,145.43 -246.43,205.04 -160.04,214.41 -216.28,478.05 -135.6,744.54 151.92,501.81 700.38,745.37 1165.16,485.3 153,-85.58 299.59,-268.89 315.72,-305.46 3.32,-7.54 2.78,-6.49 4.05,-12.1 -33.72,23.81 -74.46,67.95 -105.22,95.48 -267.36,239.36 -611.47,272.46 -922.35,93.5z"/>
     </clipPath>
 </defs>
 <g id="Layer_x0020_1">
  <metadata id="CorelCorpID_0Corel-Layer"/>
  <g id="_1352333040">
   <path class="fil0 str0" d="M2785.09 606.36l0 1920.09c0,394.2 -277.58,716.73 -616.85,716.73l-1336.49 0c-339.27,0 -616.85,-322.53 -616.85,-716.73l0 -1552.91c0,-394.2 277.58,-716.73 616.85,-716.73l668.24 0 668.24 0"/>
   <path class="fil1" d="M1161.65 1994.71l114.61 0.24c2.59,-5.39 22.97,-203.39 25.91,-228.97 16.56,-143.73 70.73,-536.44 151.3,-616.3 32.48,-32.19 64.21,-4.29 80.89,19.46 17.02,24.24 29.39,55.81 39.72,88.25 62.38,195.93 71.48,476.86 83.4,684.45 9.41,2 110.85,1.94 119.48,-0.2 3.12,-38.43 3.37,-82.02 5.11,-120.59 1.82,-40.14 4.97,-80.16 8.02,-120.22 9.75,-128.42 31.42,-323.17 69.75,-442.07 10.54,-32.72 22.2,-62.88 39.54,-88.46 15.56,-22.96 47.84,-53.32 80.79,-21.67 203.83,282.19 134.36,1383.54 215.81,1766.84l98.31 0c-71.52,-289.09 31.56,-1625.56 -301.05,-1827.17 -73.31,-44.44 -118.2,8.05 -148.35,55.14 -30.31,47.34 -53.56,104.69 -73.59,162.59 -15.93,46.03 -28.71,88.92 -41.02,136.2 -3.43,13.17 -7.73,37.96 -13,48.18 -4.47,-7.72 -21.14,-77.96 -25.25,-92.86 -21.76,-78.81 -60.81,-190.17 -102.51,-253.98 -29.17,-44.65 -73.49,-100.34 -147.12,-56.12 -43.74,26.26 -78.68,79.88 -105.5,132.69 -78.98,155.47 -126.32,375.05 -154.7,555.85 -9.93,63.29 -22.61,153.29 -20.54,218.75z"/>
   <g style="clip-path:url(#id0)">
    <g>
    </g>
    <g style="clip-path:url(#id1)">
     <image x="927.82" y="1012.41" width="1600.08" height="2104.45" xlink:href="m logo - FINAL_Images\m logo - FINAL_ImgID1.png"/>
    </g>
    <g style="clip-path:url(#id2)">
    </g>
   </g>
   <path class="fil0" d="M1161.65 1994.71l114.61 0.24c2.59,-5.39 22.97,-203.39 25.91,-228.97 16.56,-143.73 70.73,-536.44 151.3,-616.3 32.48,-32.19 64.21,-4.29 80.89,19.46 17.02,24.24 29.39,55.81 39.72,88.25 62.38,195.93 71.48,476.86 83.4,684.45 9.41,2 110.85,1.94 119.48,-0.2 3.12,-38.43 3.37,-82.02 5.11,-120.59 1.82,-40.14 4.97,-80.16 8.02,-120.22 9.75,-128.42 31.42,-323.17 69.75,-442.07 10.54,-32.72 22.2,-62.88 39.54,-88.46 15.56,-22.96 47.84,-53.32 80.79,-21.67 203.83,282.19 134.36,1383.54 215.81,1766.84l98.31 0c-71.52,-289.09 31.56,-1625.56 -301.05,-1827.17 -73.31,-44.44 -118.2,8.05 -148.35,55.14 -30.31,47.34 -53.56,104.69 -73.59,162.59 -15.93,46.03 -28.71,88.92 -41.02,136.2 -3.43,13.17 -7.73,37.96 -13,48.18 -4.47,-7.72 -21.14,-77.96 -25.25,-92.86 -21.76,-78.81 -60.81,-190.17 -102.51,-253.98 -29.17,-44.65 -73.49,-100.34 -147.12,-56.12 -43.74,26.26 -78.68,79.88 -105.5,132.69 -78.98,155.47 -126.32,375.05 -154.7,555.85 -9.93,63.29 -22.61,153.29 -20.54,218.75z"/>
   <path class="fil2" d="M1518.16 811.67c-85.85,15.82 -233.59,38.67 -362.11,78.15 -468.13,143.78 -651.48,698.4 -387.03,1109.98 170.52,265.39 459.94,351.06 662.69,338.21l135.2 -18.87c207.56,-48.9 405.28,-193.73 495.73,-389.65 2.63,-5.69 2.78,-5.54 4.49,-10.52 3.31,-9.61 -3.41,12.97 2.3,-7.9l1.86 -8.6c-61.31,60.4 -77.07,166.4 -303.64,285.81 -465.17,245.18 -1072.62,-140.54 -1009.99,-700.94 27.27,-243.98 172.28,-454.59 397.05,-555.28 98.94,-44.33 207.55,-68.78 322.01,-93.52 94.18,-20.35 174.94,-30.59 200,-17.01 -120.68,-44.93 -374.65,-18.75 -448.59,-9.21 -216.24,27.9 -424.29,115.49 -572.66,280.76 -22.81,25.41 -63.01,70.65 -82.38,101.68 -21.07,33.77 -46.11,69.26 -64.78,106.56 -302.48,604.44 138.51,1250.42 703.62,1288.91 153.74,10.46 319.91,-7.65 466,-81.98 125.73,-63.97 244.59,-149.55 330.33,-269.93 22.81,-32.02 51.69,-67.36 63.89,-106.25 -22.36,22.87 -42.16,59.13 -68.69,91.74 -417.38,513.1 -1185.69,380.51 -1436.28,-149.08 -122.5,-258.88 -129.64,-553.94 16.57,-804.55 76.09,-130.44 187.03,-245.88 322.45,-325.03 94.45,-55.2 204.86,-83.83 292.94,-100.11 111.86,-20.69 206.18,-27.53 319.01,-33.35z"/>
   <path class="fil3" d="M1002.67 2273.85c-395.48,-227.63 -496.9,-789.78 -277.09,-1100.13 23.37,-33 54.37,-73.7 81.3,-102.78 32.89,-35.51 81.78,-68.85 120.46,-103.4 -57.58,21.34 -201.93,145.43 -246.43,205.04 -160.04,214.41 -216.28,478.05 -135.6,744.54 151.92,501.81 700.38,745.37 1165.16,485.3 153,-85.58 299.59,-268.89 315.72,-305.46 3.32,-7.54 2.78,-6.49 4.05,-12.1 -33.72,23.81 -74.46,67.95 -105.22,95.48 -267.36,239.36 -611.47,272.46 -922.35,93.5z"/>
   <g style="clip-path:url(#id3)">
    <g>
    </g>
    <g style="clip-path:url(#id4)">
     <image transform="matrix(0.14649 0.0370943 -0.0574297 0.226797 604.378 814.549)" x="0" y="0" width="11833.33" height="6666.66" xlink:href="m logo - FINAL_Images\m logo - FINAL_ImgID2.png"/>
    </g>
    <g style="clip-path:url(#id5)">
    </g>
   </g>
   <path class="fil0" d="M1002.67 2273.85c-395.48,-227.63 -496.9,-789.78 -277.09,-1100.13 23.37,-33 54.37,-73.7 81.3,-102.78 32.89,-35.51 81.78,-68.85 120.46,-103.4 -57.58,21.34 -201.93,145.43 -246.43,205.04 -160.04,214.41 -216.28,478.05 -135.6,744.54 151.92,501.81 700.38,745.37 1165.16,485.3 153,-85.58 299.59,-268.89 315.72,-305.46 3.32,-7.54 2.78,-6.49 4.05,-12.1 -33.72,23.81 -74.46,67.95 -105.22,95.48 -267.36,239.36 -611.47,272.46 -922.35,93.5z"/>
   <g>
    <g>
     <path class="fil2" d="M1707.3 773.55c-14.91,11.37 -36.71,14.62 -47.27,28.47 -16.25,21.3 18.5,27.22 35.46,28.32 42.85,2.76 100.31,-5.07 142.98,-14.51 47.57,-10.53 128.26,-43.91 179.66,-62.87 18.71,-6.91 41.43,-17 60.23,-21.98l-88.43 166.38c-2.4,4.38 -16.09,26.62 4.14,21.38 9.2,-2.38 25.13,-9.82 35,-13.61 17.09,-6.56 17.66,-6.25 26.75,-18.13l163.67 -186.09c6.19,-7.4 14.86,-15.65 20.85,-22.85 10.87,-13.05 7.56,-10.94 26.92,-18.09l170.87 -63.7c23.48,-8.63 194.76,-68.98 142.1,-111.74 -15.31,-12.43 -43.36,-14.89 -68.16,-14.85 -33.13,0.06 -42.96,4.79 -75.09,-3.16 -34.94,-8.65 -33.31,-10.93 -67.71,4.52 -182.7,82.08 -354.23,169.14 -536.09,250.99 -16.05,7.22 -16.83,3.56 -30.46,-2.98l-86.54 -40.92c-7.56,-3.6 -21.8,-11.21 -28.61,-13.49 -9.28,-3.1 -66.2,21.12 -67.85,23.93 -5.24,8.99 18.7,23.11 29.52,33.39l58.06 51.59z"/>
     <path class="fil2" d="M1935.96 558.51c1.58,11.96 8.14,9.75 30.89,18.18 12.12,4.49 24.63,8.23 36.93,12.32 12.1,4.02 24.35,8.47 36.61,12.56 21.84,7.28 17.69,5.28 38.88,-4.82 24.36,-11.61 48.65,-23.31 72.93,-34.83 12.42,-5.89 24.59,-11.89 37.09,-17.65 20.3,-9.35 32.8,-11.73 27.94,-24.26 -10.47,-4.37 -125.4,5.71 -147.45,7.04 -21.62,1.29 -54.9,1.44 -75.13,4.83 -9.88,1.65 -53.08,20.4 -58.69,26.64z"/>
    </g>
    <rect class="fil4" transform="matrix(-0.316873 0.128367 0.128367 0.316873 2366.05 485.088)" width="98.96" height="98.96" rx="31.25" ry="31.25"/>
    <rect class="fil4" transform="matrix(-0.316873 0.128367 0.128367 0.316873 2325.1 504.082)" width="98.96" height="98.96" rx="31.25" ry="31.25"/>
    <rect class="fil4" transform="matrix(-0.316873 0.128367 0.128367 0.316873 2285.33 522.482)" width="98.96" height="98.96" rx="31.25" ry="31.25"/>
    <rect class="fil4" transform="matrix(-0.316873 0.128367 0.128367 0.316873 2246.75 540.29)" width="98.96" height="98.96" rx="31.25" ry="31.25"/>
    <rect class="fil4" transform="matrix(-0.316873 0.128367 0.128367 0.316873 2206.98 559.284)" width="98.96" height="98.96" rx="31.25" ry="31.25"/>
    <rect class="fil4" transform="matrix(-0.316873 0.128367 0.128367 0.316873 2408.79 468.172)" width="98.96" height="98.96" rx="31.25" ry="31.25"/>
   </g>
  </g>
 </g>
</svg>
